<svg version="1" xmlns="http://www.w3.org/2000/svg" width="933.333" height="933.333" viewBox="0 0 700.000000 700.000000"><path d="M333.5 12.6c-24.8 1.9-44 4.8-63 9.5C188.6 42.4 118.6 91.4 72 161c-32.4 48.5-49.3 95.4-56.1 156-1.7 14.6-1.7 50.2 0 64.5C21.2 428 34.8 472 55.1 508.6c28.4 50.9 64.2 90 112.2 122.1 15.7 10.5 26.8 16.3 31 16.3 4 0 10.2-3.7 12.7-7.6 1.1-1.6 2-4.6 2-6.8 0-7.1-4.1-11.4-22-22.7-17.4-10.9-32.4-22.4-46.7-35.8-17.6-16.5-21.8-20.8-27.5-28.3-2.4-3.1-7.1-9.1-10.5-13.3-3.5-4.2-6.3-8.3-6.3-9.2 0-.9-1.5-3.2-3.4-5.3-9.2-10.2-27.9-48-36.6-73.8-15.1-45-18.9-96-10.9-146.2 13.5-85.4 64.1-161.3 139.1-208.6 13.3-8.4 41-22 56.4-27.7C280.3 48.4 311 43 350.5 43c31.4 0 55.4 3.1 82.5 10.5 68.6 18.9 131.3 64.1 171.9 124 27 39.9 42.6 81.3 49.8 132.5 2.7 19.4 2.4 64.7-.5 83.5-7.3 47.2-26.5 94.3-54.3 133.5-8.4 11.9-16.1 20.9-34.9 40.8-15.7 16.7-22.1 22.6-27.9 25.6-6.6 3.5-35.5 22.8-40.7 27.2-5.9 5-7.9 8.9-7 13.8 1.3 6.9 7.5 11.6 15.2 11.6 6.2 0 28.2-13 51-30.1 11.9-8.9 33.3-27.7 38.1-33.5 2.1-2.5 7.2-8.5 11.4-13.2 45.6-52.2 74.5-120.1 81-190.5 1.7-19 .7-60.5-2.1-78.2-8.6-56.8-30.1-108.5-63.6-153-10.5-14.1-21-25.9-35.6-40.1C531.6 55.5 463.5 23 390 14.5c-13.3-1.5-46.7-2.7-56.5-1.9z"/><path d="M344 139.7c-2.8 3.2-8.7 11-13.1 17.3-38.4 54.9-64.2 122.7-75.5 198.9l-1.9 12.3-10 6.9c-18.3 12.5-30.4 24.5-41.6 41.2-16.5 24.7-24.9 53.5-25 85.7-.1 19.4 1.1 23 6.7 20.9 1.2-.4 7.3-4.2 13.5-8.5 16-10.9 29.5-16.7 45.9-19.9 4.7-.9 9.5-1.8 10.6-2 2-.5 2.3 0 2.9 6.8.9 9 3.1 17.8 5 19.6 1.1 1.2 7.8 1.6 32.2 2.4 35.7 1 133.3.2 141.2-1.3 7.2-1.2 9.1-3.1 9.1-8.9 0-6.2 1.7-16.2 3-17.5.7-.7 3.7-.6 9.4.2 15.6 2.3 28.5 7.6 45.9 19.1 17.9 11.8 18.8 12 20.8 4.9 1.5-5.8.6-34.4-1.6-46.8-3.2-18.4-12.2-40.2-23.7-57.5-7-10.6-24-27.5-35.7-35.5-16.1-11-15.1-9.6-17.2-24.8-9.1-65.2-31.4-128.2-63.4-179.1-14.9-23.7-27.6-40.1-31.1-40.1-.7 0-3.5 2.6-6.4 5.7zm13.2 88.5c6.9 7.3 15.3 20.2 19.5 30.1 9.2 21.7 13.9 53.5 8.6 57.9-1.2.9-8.7 1.4-28.4 1.6-43.1.7-44.6.2-43.5-12.2 1.8-19.9 6.4-37.4 13.7-52.6 7.7-15.9 18.5-30 23-30 1.1 0 4.2 2.3 7.1 5.2zM296.8 547c-2.4 1.3-4.1 3.1-4.5 4.8-.5 1.5-.8 22-.8 45.7 0 48.2.2 49.6 6.1 52.1 4.6 1.9 7.1 1.8 11-.7 2.2-1.4 3.7-3.2 4.4-5.7 1.3-4.7 1.3-78.2 0-87.1-.5-4-1.6-7.2-2.8-8.3-2.8-2.9-9-3.2-13.4-.8zM346.5 546.4c-6 2.7-6.8 4.5-7.8 18.8-1.3 17 .2 35.8 3 39.7 3.8 5 11.6 5.3 17 .6l2.8-2.3.3-24.4c.4-27.7-.1-31-5-32.7-4-1.4-6.6-1.3-10.3.3zM392.4 548.2l-4.9 3.3-.6 23.5c-.4 12.9-.7 43.4-.8 67.6l-.1 44.1 5 4.7c2.7 2.5 5.7 4.6 6.6 4.6.9 0 4.3-1.4 7.5-3.1l5.9-3.2-.2-69-.3-69.1-4.3-3.3c-5.4-4.1-7.7-4.1-13.8-.1z"/></svg>