<?xml version="1.0" encoding="UTF-8" standalone="no"?>
<!DOCTYPE svg PUBLIC "-//W3C//DTD SVG 1.1//EN" "http://www.w3.org/Graphics/SVG/1.1/DTD/svg11.dtd">
<svg version="1.1" xmlns="http://www.w3.org/2000/svg" xmlns:xlink="http://www.w3.org/1999/xlink" preserveAspectRatio="xMidYMid meet" viewBox="6.343074232637825 5.206165786870095 154 156.34999999999997" width="150" height="152.35"><defs><path d="M91.19 157.51L90.06 156.43L90.19 141.48L90.37 126.58C90.96 126.09 91.29 125.81 91.36 125.76C92.7 124.63 93.65 124.68 94.82 125.93C95.72 126.88 95.77 127.1 95.77 141.7C95.77 142.69 95.77 147.61 95.77 156.48C95.12 157.12 94.76 157.48 94.69 157.56C93.3 158.9 92.57 158.9 91.19 157.51" id="b3gItEgPm"></path><path d="M70.58 148.4C69.07 147.66 68.98 146.88 68.98 136.73C68.98 127.23 69.02 126.58 69.84 125.8C70.88 124.72 71.87 124.68 73.17 125.58C74.12 126.23 74.16 126.4 74.16 136.82C74.16 146.84 74.12 147.36 73.3 148.01C72.35 148.7 71.49 148.87 70.58 148.4" id="a20px4E2zM"></path><path d="M45.73 146.71C37.66 142.26 29.62 135.35 22.66 126.75C20.59 124.2 16.79 117.89 14.76 113.57C3.31 89.68 5.21 61.85 19.85 39.82C38.87 11.17 74.81 -0.88 107.22 10.39C126.92 17.35 143.21 32.6 151.37 51.92C160.71 73.87 159.02 98.71 146.84 119.53C141 129.52 131.41 139.15 121.13 145.42C117.63 147.53 116.98 147.71 115.12 147.23C112.79 146.67 112.49 142.78 114.69 141.44C121.65 137.16 126.1 133.88 129.99 129.95C135.17 124.81 135.82 124.07 138.89 119.53C142.17 114.61 145.24 108.3 147.18 102.47C153.15 84.54 151.2 64.23 141.91 47.81C129.68 26.21 107.17 13.03 82.5 13.03C71.05 12.99 62.37 15.06 51.91 20.16C34.76 28.58 21.41 44.79 16.44 63.24C13.98 72.57 13.46 84.11 15.14 93.61C17.22 105.02 23.14 117.2 31.04 126.23C36.06 131.98 41.07 136 50.27 141.61C52.26 142.82 52.04 146.06 49.93 147.14C48.24 148.01 48.15 148.01 45.73 146.71" id="eBUbV6LY"></path><path d="M80.65 138.85C79.82 138.16 79.52 136.21 79.57 131.46C79.57 126.84 79.65 126.49 80.56 125.71C81.81 124.72 82.72 124.72 83.97 125.58C84.88 126.23 84.97 126.58 84.97 132.02C84.97 137.21 84.88 137.81 84.1 138.46C83.19 139.19 81.34 139.41 80.65 138.85" id="ciONAIFFQ"></path><path d="M43.7 119.49C43.27 118.11 43.49 112.41 44.09 108.86C45.65 99.92 50.4 92.53 57.7 87.52C57.9 87.39 58.88 86.72 60.64 85.53C61.08 82.63 61.33 81.01 61.38 80.69C63.45 67.25 68.42 53.43 75.07 42.63C77.97 37.96 81.51 33.34 82.2 33.34C83.5 33.34 89.63 42.24 93.13 49.28C96.63 56.19 99.05 62.67 100.95 70.06C101.99 74.17 103.5 82.51 103.54 84.23C103.54 85.14 104.02 85.7 106.01 86.96C112.66 91.19 117.11 97.07 119.49 104.84C121.13 110.16 121.56 119.49 120.14 120.01C119.88 120.1 118.06 119.15 116.16 117.89C114.22 116.6 112.1 115.34 111.45 115.08C109.12 114.26 107.17 113.75 105.4 113.49C105.28 113.47 104.68 113.37 103.59 113.18C103.41 114.76 103.31 115.64 103.29 115.82C103.11 117.29 102.68 118.76 102.34 119.1C101.43 120.05 63.28 120.05 62.37 119.1C62.02 118.76 61.59 117.33 61.42 115.86C61.25 114.18 60.94 113.27 60.6 113.27C60.3 113.27 58.48 113.66 56.62 114.13C53.21 115 49.75 116.68 46.81 118.93C45 120.31 44.01 120.49 43.7 119.49M74.08 73.74C73.43 72.83 74.68 65.35 76.11 61.77C77.71 57.66 80.86 53.21 82.16 53.21C83.15 53.21 86.35 57.23 87.77 60.26C90.15 65.4 91.4 73.52 89.93 74.08C89.55 74.25 85.96 74.38 81.94 74.38C75.94 74.38 74.47 74.25 74.08 73.74" id="c19jBTclJk"></path></defs><g><g><use xlink:href="#b3gItEgPm" opacity="1" fill="#ffffff" fill-opacity="1"></use><g><use xlink:href="#b3gItEgPm" opacity="1" fill-opacity="0" stroke="#000000" stroke-width="0" stroke-opacity="0"></use></g></g><g><use xlink:href="#a20px4E2zM" opacity="1" fill="#ffffff" fill-opacity="1"></use><g><use xlink:href="#a20px4E2zM" opacity="1" fill-opacity="0" stroke="#000000" stroke-width="0" stroke-opacity="0"></use></g></g><g><use xlink:href="#eBUbV6LY" opacity="1" fill="#ffffff" fill-opacity="1"></use><g><use xlink:href="#eBUbV6LY" opacity="1" fill-opacity="0" stroke="#000000" stroke-width="0" stroke-opacity="0"></use></g></g><g><use xlink:href="#ciONAIFFQ" opacity="1" fill="#ffffff" fill-opacity="1"></use><g><use xlink:href="#ciONAIFFQ" opacity="1" fill-opacity="0" stroke="#000000" stroke-width="0" stroke-opacity="0"></use></g></g><g><g><filter id="shadow14964881" x="34.48" y="24.34" width="96.52" height="105.79" filterUnits="userSpaceOnUse" primitiveUnits="userSpaceOnUse"><feFlood></feFlood><feComposite in2="SourceAlpha" operator="in"></feComposite><feGaussianBlur stdDeviation="1"></feGaussianBlur><feOffset dx="1" dy="1" result="afterOffset"></feOffset><feFlood flood-color="#000000" flood-opacity="0.5"></feFlood><feComposite in2="afterOffset" operator="in"></feComposite><feMorphology operator="dilate" radius="1"></feMorphology><feComposite in2="SourceAlpha" operator="out"></feComposite></filter><path d="M43.7 119.49C43.27 118.11 43.49 112.41 44.09 108.86C45.65 99.92 50.4 92.53 57.7 87.52C57.9 87.39 58.88 86.72 60.64 85.53C61.08 82.63 61.33 81.01 61.38 80.69C63.45 67.25 68.42 53.43 75.07 42.63C77.97 37.96 81.51 33.34 82.2 33.34C83.5 33.34 89.63 42.24 93.13 49.28C96.63 56.19 99.05 62.67 100.95 70.06C101.99 74.17 103.5 82.51 103.54 84.23C103.54 85.14 104.02 85.7 106.01 86.96C112.66 91.19 117.11 97.07 119.49 104.84C121.13 110.16 121.56 119.49 120.14 120.01C119.88 120.1 118.06 119.15 116.16 117.89C114.22 116.6 112.1 115.34 111.45 115.08C109.12 114.26 107.17 113.75 105.4 113.49C105.28 113.47 104.68 113.37 103.59 113.18C103.41 114.76 103.31 115.64 103.29 115.82C103.11 117.29 102.68 118.76 102.34 119.1C101.43 120.05 63.28 120.05 62.37 119.1C62.02 118.76 61.59 117.33 61.42 115.86C61.25 114.18 60.94 113.27 60.6 113.27C60.3 113.27 58.48 113.66 56.62 114.13C53.21 115 49.75 116.68 46.81 118.93C45 120.31 44.01 120.49 43.7 119.49M74.08 73.74C73.43 72.83 74.68 65.35 76.11 61.77C77.71 57.66 80.86 53.21 82.16 53.21C83.15 53.21 86.35 57.23 87.77 60.26C90.15 65.4 91.4 73.52 89.93 74.08C89.55 74.25 85.96 74.38 81.94 74.38C75.94 74.38 74.47 74.25 74.08 73.74" id="kD7llxJ3d" fill="none" stroke="white" filter="url(#shadow14964881)"></path></g><use xlink:href="#c19jBTclJk" opacity="1" fill="#ffffff" fill-opacity="1"></use><g><use xlink:href="#c19jBTclJk" opacity="1" fill-opacity="0" stroke="#000000" stroke-width="0" stroke-opacity="0"></use></g></g></g></svg>